<?xml version="1.0" standalone="no"?>
<!DOCTYPE svg PUBLIC "-//W3C//DTD SVG 20010904//EN"
 "http://www.w3.org/TR/2001/REC-SVG-20010904/DTD/svg10.dtd">
<svg version="1.0" xmlns="http://www.w3.org/2000/svg"
 width="260.000000pt" height="260.000000pt" viewBox="0 0 260.000000 260.000000"
 preserveAspectRatio="xMidYMid meet">
<metadata>
Created by potrace 1.11, written by Peter Selinger 2001-2013
</metadata>
<g transform="translate(0.000000,260.000000) scale(0.100000,-0.100000)"
fill="#000000" stroke="none">
<path d="M153 2154 c-52 -19 -125 -97 -141 -152 -9 -28 -12 -167 -12 -476 l0
-436 1300 0 1300 0 0 185 0 185 -742 2 -743 3 0 165 0 165 743 3 742 2 0 83
c0 102 -19 163 -66 211 -75 77 32 71 -1219 73 -975 1 -1125 0 -1162 -13z m461
-303 c39 -113 55 -125 173 -131 60 -3 98 -9 100 -16 2 -7 -17 -32 -43 -55
-123 -113 -120 -100 -67 -291 10 -34 -25 -29 -92 12 -103 63 -116 63 -214 -5
-55 -38 -86 -54 -93 -47 -7 7 -3 40 11 100 27 113 22 127 -66 208 -41 37 -64
65 -59 72 4 7 31 12 64 12 82 0 128 10 151 31 11 11 32 59 47 107 14 48 28 91
31 95 10 17 30 -16 57 -92z"/>
<path d="M0 707 c0 -102 19 -163 66 -211 75 -77 -34 -71 1234 -71 1268 0 1159
-6 1234 71 47 48 66 109 66 211 l0 83 -1300 0 -1300 0 0 -83z"/>
</g>
</svg>
